<svg xmlns="http://www.w3.org/2000/svg" xmlns:xlink="http://www.w3.org/1999/xlink" viewBox="0 0 113.43 113.43"><defs><style>.cls-1{fill:none;}.cls-2{fill:url(#LOOMPACT_B_G_B_Gradient);}.cls-3{fill:url(#LOOMPACT_B_G_B_Gradient-2);}.cls-4{fill:url(#LOOMPACT_B_G_B_Gradient-3);}.cls-5{fill:url(#LOOMPACT_B_G_B_Gradient-4);}.cls-6{fill:url(#LOOMPACT_B_G_B_Gradient-5);}.cls-7{fill:url(#LOOMPACT_B_G_B_Gradient-6);}.cls-8{fill:url(#LOOMPACT_B_G_B_Gradient-7);}</style><linearGradient id="LOOMPACT_B_G_B_Gradient" x1="-52.14" y1="84.88" x2="90.04" y2="65.22" gradientUnits="userSpaceOnUse"><stop offset="0" stop-color="#47a6de"/><stop offset="0.5" stop-color="#4db486"/><stop offset="1" stop-color="#47a6de"/></linearGradient><linearGradient id="LOOMPACT_B_G_B_Gradient-2" x1="-51.68" y1="88.16" x2="90.5" y2="68.51" xlink:href="#LOOMPACT_B_G_B_Gradient"/><linearGradient id="LOOMPACT_B_G_B_Gradient-3" x1="-51.39" y1="90.29" x2="90.79" y2="70.63" xlink:href="#LOOMPACT_B_G_B_Gradient"/><linearGradient id="LOOMPACT_B_G_B_Gradient-4" x1="-51.16" y1="91.96" x2="91.02" y2="72.3" xlink:href="#LOOMPACT_B_G_B_Gradient"/><linearGradient id="LOOMPACT_B_G_B_Gradient-5" x1="18.3" y1="40.62" x2="160.48" y2="20.96" xlink:href="#LOOMPACT_B_G_B_Gradient"/><linearGradient id="LOOMPACT_B_G_B_Gradient-6" x1="19.36" y1="48.33" x2="161.54" y2="28.67" xlink:href="#LOOMPACT_B_G_B_Gradient"/><linearGradient id="LOOMPACT_B_G_B_Gradient-7" x1="18.76" y1="43.99" x2="160.94" y2="24.34" xlink:href="#LOOMPACT_B_G_B_Gradient"/></defs><g id="Ebene_2" data-name="Ebene 2"><g id="LOOMPACT_Logo_Square_Template" data-name="LOOMPACT Logo Square Template"><circle class="cls-1" cx="56.71" cy="56.71" r="56.71"/><g id="LOOMPACT_Logo_Square" data-name="LOOMPACT Logo Square"><g id="LOOMPACT"><g id="PACT"><path id="P" class="cls-2" d="M31.79,64.07A7.77,7.77,0,0,1,37,65.58a5.35,5.35,0,0,1,1.76,4.31,5.7,5.7,0,0,1-.49,2.38,5.26,5.26,0,0,1-1.38,1.86,6.5,6.5,0,0,1-2.2,1.22,9,9,0,0,1-2.9.44H28.15V83.7H26.72V64.07Zm0,10.58a7,7,0,0,0,2.32-.36,4.94,4.94,0,0,0,1.74-1,4.29,4.29,0,0,0,1.1-1.5,4.74,4.74,0,0,0,.38-1.9,4.38,4.38,0,0,0-1.39-3.48,6.12,6.12,0,0,0-4.15-1.22H28.15v9.46Z"/><path id="A" class="cls-3" d="M56.33,83.7h-1.1a.53.53,0,0,1-.32-.1.63.63,0,0,1-.19-.28l-2.31-5.7H42.77l-2.3,5.7a.58.58,0,0,1-.2.27.52.52,0,0,1-.33.11H38.86l8-19.63h1.4ZM52,76.57l-4-9.92a10.39,10.39,0,0,1-.41-1.17,8.8,8.8,0,0,1-.38,1.18l-4,9.91Z"/><path id="C" class="cls-4" d="M73.32,80.4a.36.36,0,0,1,.24.09l.55.6a8.57,8.57,0,0,1-1.32,1.17,7.78,7.78,0,0,1-1.57.89,8.7,8.7,0,0,1-1.87.57,12,12,0,0,1-2.24.2,9.66,9.66,0,0,1-3.74-.71,8.25,8.25,0,0,1-2.92-2A9.06,9.06,0,0,1,58.55,78a12,12,0,0,1-.67-4.13,11.57,11.57,0,0,1,.69-4.08,9.35,9.35,0,0,1,2-3.17,8.6,8.6,0,0,1,3-2.06,10.05,10.05,0,0,1,3.86-.73,9.17,9.17,0,0,1,6.4,2.39l-.43.62A.38.38,0,0,1,73,67a1.13,1.13,0,0,1-.54-.3,7.23,7.23,0,0,0-1-.68,9.2,9.2,0,0,0-1.66-.67,8.28,8.28,0,0,0-2.38-.31,8.37,8.37,0,0,0-3.25.62,7,7,0,0,0-2.54,1.74,8.1,8.1,0,0,0-1.66,2.78,10.64,10.64,0,0,0-.6,3.68,10.5,10.5,0,0,0,.61,3.71,8,8,0,0,0,1.65,2.77,7.33,7.33,0,0,0,2.49,1.74,8,8,0,0,0,3.11.6,11.72,11.72,0,0,0,1.88-.14,7.06,7.06,0,0,0,1.52-.42,7.16,7.16,0,0,0,1.29-.67,10.92,10.92,0,0,0,1.18-1,.51.51,0,0,1,.13-.09Z"/><path id="T" class="cls-5" d="M90.68,65.27H83.79V83.7H82.36V65.27H75.42v-1.2H90.68Z"/></g><g id="LOOM"><path id="L" class="cls-6" d="M31.69,45.81v3.66H19.79V29.72h4.58V45.81Z"/><path id="M" class="cls-7" d="M93.64,29.72V49.47h-4V38.11c0-.26,0-.55,0-.85s0-.62.07-.94L84.45,46.47a1.65,1.65,0,0,1-.66.72,1.83,1.83,0,0,1-.94.24h-.62a1.8,1.8,0,0,1-.94-.24,1.65,1.65,0,0,1-.66-.72L75.38,36.3c0,.32.05.64.07,1s0,.6,0,.86V49.47h-4V29.72h3.5l.52,0a1.24,1.24,0,0,1,.4.08.81.81,0,0,1,.32.21,1.72,1.72,0,0,1,.27.4l5.09,10c.18.35.35.7.52,1.07l.48,1.14c.15-.4.31-.79.48-1.16s.35-.75.53-1.09l5.07-10a1.72,1.72,0,0,1,.28-.4.81.81,0,0,1,.32-.21,1.24,1.24,0,0,1,.4-.08l.52,0Z"/><path id="OO" class="cls-8" d="M68,35.62a9.38,9.38,0,0,0-5.32-5.33,10.86,10.86,0,0,0-4.19-.78,11,11,0,0,0-4.2.77,9.42,9.42,0,0,0-3.24,2.13,6.13,6.13,0,0,0-.49.54A9.47,9.47,0,0,0,49,35.6a10.82,10.82,0,0,0-.75,3.89h0a9.33,9.33,0,0,1-.38,2.75,5.57,5.57,0,0,1-1.09,2A4.55,4.55,0,0,1,45,45.46a6.66,6.66,0,0,1-4.71,0,4.66,4.66,0,0,1-1.75-1.24,5.57,5.57,0,0,1-1.09-2,9.4,9.4,0,0,1,0-5.29,5.57,5.57,0,0,1,1.09-2,4.8,4.8,0,0,1,1.75-1.25,6.66,6.66,0,0,1,4.71,0,5,5,0,0,1,1.14.68h0A12,12,0,0,1,47.75,36a9.16,9.16,0,0,1,2.12-3.77,9.48,9.48,0,0,0-3-1.93,11.77,11.77,0,0,0-8.4,0,9.46,9.46,0,0,0-5.33,5.32,11.1,11.1,0,0,0,0,8,9.53,9.53,0,0,0,2.09,3.21,9.67,9.67,0,0,0,3.24,2.13,11.84,11.84,0,0,0,8.4,0,9.72,9.72,0,0,0,2.61-1.56h0a6.87,6.87,0,0,0,.63-.58,9.52,9.52,0,0,0,2.08-3.2,10.92,10.92,0,0,0,.75-3.91A9.08,9.08,0,0,1,53.3,37a5.42,5.42,0,0,1,1.09-2,4.71,4.71,0,0,1,1.75-1.25,6.66,6.66,0,0,1,4.71,0A4.85,4.85,0,0,1,62.59,35a5.73,5.73,0,0,1,1.09,2,9.4,9.4,0,0,1,0,5.29,5.73,5.73,0,0,1-1.09,2,4.7,4.7,0,0,1-1.74,1.24,6.66,6.66,0,0,1-4.71,0A4.51,4.51,0,0,1,55,44.79h0a12,12,0,0,1-1.6-1.59,8,8,0,0,1-.27.83A9.58,9.58,0,0,1,51.27,47a9.78,9.78,0,0,0,3,1.94,11,11,0,0,0,4.2.77,10.86,10.86,0,0,0,4.19-.77,9.57,9.57,0,0,0,3.24-2.13A9.82,9.82,0,0,0,68,43.57a11.19,11.19,0,0,0,0-8Z"/></g></g></g></g></g></svg>